Coordinates
version=1
nRows=6
nColumns=38
inDegrees=yes

Units are S.I. units (second, meters, Newtons, ...)
Angles are in degrees.

endheader
time	pelvis_tilt	pelvis_list	pelvis_rotation	pelvis_tx	pelvis_ty	pelvis_tz	hip_flexion_r	hip_adduction_r	hip_rotation_r	knee_angle_r	ankle_angle_r	subtalar_angle_r	mtp_angle_r	hip_flexion_l	hip_adduction_l	hip_rotation_l	knee_angle_l	ankle_angle_l	subtalar_angle_l	mtp_angle_l	lumbar_extension	lumbar_bending	lumbar_rotation	arm_flex_r	arm_add_r	arm_rot_r	elbow_flex_r	pro_sup_r	wrist_flex_r	wrist_dev_r	arm_flex_l	arm_add_l	arm_rot_l	elbow_flex_l	pro_sup_l	wrist_flex_l	wrist_dev_l
      7.48333333	     -1.40124071	     -6.96330086	     -1.98243378	      0.80725748	      0.92996196	     -0.19012991	      8.43749409	     12.82178749	      2.19517009	    -43.61977053	     24.06886074	      0.00000000	      0.00000000	     29.83774339	    -10.34628151	     -3.86010881	    -98.06629914	     -5.18962729	      0.00000000	      0.00000000	    -10.26045777	      8.37080202	      5.03833468	     -6.22336550	    -38.69877370	     10.18027944	     85.36909652	      9.31434201	      0.00000000	      0.00000000	    -20.57164881	    -17.19499791	     23.00197301	     63.19145953	      6.45139587	      0.00000000	      0.00000000
      7.50000000	     -2.36452908	     -5.63332823	     -2.78930406	      0.80912330	      0.93729575	     -0.19015272	      1.94639744	     10.96667596	      4.34872614	    -37.50567361	     21.67706319	      0.00000000	      0.00000000	     35.11313287	     -8.52778177	     -4.72337859	    -94.25732517	     -1.73533046	      0.00000000	      0.00000000	     -8.83379331	      7.02743942	      8.48529830	     -6.63669491	    -39.04673067	      7.39615706	     91.87526285	      9.57059717	      0.00000000	      0.00000000	    -24.81453200	    -18.37289351	     21.29755100	     65.96539034	      6.61092107	      0.00000000	      0.00000000
      7.51666667	     -3.87374291	     -4.11532938	     -2.95200796	      0.81179491	      0.94640286	     -0.19104678	     -4.18138600	      8.66529458	      5.65333541	    -30.02975756	     16.33914211	      0.00000000	      0.00000000	     39.92449188	     -6.57704861	     -5.72678272	    -88.21421727	      0.58072340	      0.00000000	      0.00000000	     -6.32267965	      5.72959595	     10.42392470	     -5.60412061	    -39.15588406	      6.62884690	     96.90197798	     10.39646517	      0.00000000	      0.00000000	    -28.38239982	    -19.78055693	     20.84448494	     67.08032809	      7.23085015	      0.00000000	      0.00000000
      7.53333333	     -5.06778636	     -2.45797214	     -2.91768156	      0.81563593	      0.95560183	     -0.19264158	    -10.49822000	      6.05267206	      6.33211045	    -22.20159279	      9.40588767	      0.00000000	      0.00000000	     43.13277494	     -4.35039429	     -6.83752609	    -80.43732782	      2.48652701	      0.00000000	      0.00000000	     -4.34818841	      4.25328901	     12.29021053	     -5.58618592	    -39.17846269	      5.64597778	    103.02334624	     10.54299007	      0.00000000	      0.00000000	    -31.95445450	    -21.09399044	     19.42294630	     68.76689352	      7.02006316	      0.00000000	      0.00000000
      7.55000000	     -6.35284088	     -1.23044608	     -3.04978752	      0.81807989	      0.96360300	     -0.19377488	    -14.88101043	      4.03405204	      6.44911218	    -17.21655387	      1.16920674	      0.00000000	      0.00000000	     45.35071201	     -2.59224295	     -7.59468043	    -71.34217452	      3.79711918	      0.00000000	      0.00000000	     -2.75500435	      3.28163089	     13.89078679	     -4.79169889	    -38.86056407	      5.17275016	    109.03713476	     10.86690825	      0.00000000	      0.00000000	    -35.09761119	    -22.29664918	     18.38510913	     70.25811476	      6.96590302	      0.00000000	      0.00000000
      7.56666667	     -6.85891154	      0.55045636	     -2.03181516	      0.82351133	      0.97055403	     -0.19673758	    -20.87948656	      1.74870773	      5.21517618	    -10.68014955	     -7.23908717	      0.00000000	      0.00000000	     45.34898371	      0.28544895	     -8.37108575	    -60.82532508	      4.22104458	      0.00000000	      0.00000000	     -1.70759227	      1.60598729	     14.89436529	     -6.21786134	    -38.40953883	      3.87159819	    115.65581284	     10.83928660	      0.00000000	      0.00000000	    -38.06443835	    -23.48035004	     16.00513561	     72.10922409	      6.65455829	      0.00000000	      0.00000000
